<svg width="18" height="16" viewBox="0 0 18 16" fill="none" xmlns="http://www.w3.org/2000/svg">
<path d="M0.309278 5.18423L8.55812 9.1033C8.63135 9.138 8.71095 9.15583 8.79023 9.15583C8.86951 9.15583 8.94911 9.138 9.02234 9.1033L17.2721 5.18423C17.4609 5.09477 17.5813 4.90437 17.5813 4.69551C17.5813 4.48664 17.4609 4.29625 17.2721 4.20678L9.02266 0.287398C8.87588 0.217352 8.7049 0.217352 8.55812 0.287398L0.309278 4.20678C0.120473 4.29625 0.00012207 4.48664 0.00012207 4.69551C0.00012207 4.90437 0.120473 5.09477 0.309278 5.18423ZM8.79023 1.37534L15.7783 4.69551L8.79023 8.01536L1.80285 4.69551L8.79023 1.37534Z" fill="black"/>
<path d="M17.529 7.76763C17.4004 7.49763 17.0773 7.38269 16.8076 7.511L8.7902 11.3196L0.773781 7.511C0.50315 7.38269 0.181258 7.49763 0.0523101 7.76763C-0.0756826 8.03826 0.0392559 8.36047 0.309251 8.4891L8.5581 12.4082C8.63133 12.4429 8.71092 12.4604 8.7902 12.4604C8.86948 12.4604 8.94908 12.4429 9.02231 12.4082L17.2721 8.48878C17.5421 8.36079 17.657 8.03794 17.529 7.76763Z" fill="black"/>
<path d="M17.529 11.0721C17.4004 10.8015 17.0773 10.6878 16.8076 10.8155L8.7902 14.6241L0.773781 10.8155C0.50315 10.6878 0.181258 10.8015 0.0523101 11.0721C-0.0756826 11.3425 0.0392559 11.6647 0.309251 11.7936L8.5581 15.7127C8.63133 15.7474 8.71092 15.7649 8.7902 15.7649C8.86948 15.7649 8.94908 15.7474 9.02231 15.7127L17.2721 11.7933C17.5421 11.6653 17.657 11.3421 17.529 11.0721Z" fill="black"/>
</svg>
