<svg width="15" height="14" viewBox="0 0 15 14" fill="none" xmlns="http://www.w3.org/2000/svg">
<path d="M0.43421 0.233163C0.509673 0.155478 0.612892 0.110932 0.721183 0.109305L0.43421 0.233163ZM0.43421 0.233163C0.358922 0.310667 0.317407 0.414829 0.318732 0.522851M0.43421 0.233163L0.318732 0.522851M0.318732 0.522851V13.4822C0.318742 13.5905 0.361792 13.6945 0.438418 13.7711C0.515052 13.8477 0.618974 13.8907 0.727315 13.8907H13.6867H13.6873V13.7907M0.318732 0.522851L0.843217 0.231847C0.881481 0.247348 0.916246 0.270368 0.945453 0.299544C0.97466 0.328721 0.997715 0.363462 1.01325 0.401707C1.02879 0.439952 1.0365 0.480918 1.03592 0.522195H1.13592V0.522852V13.0736H13.6867H13.6873V13.1736M0.318732 0.522851V0.522195H0.418732M0.318732 0.522851L0.318742 0.523606L0.418732 0.522195M13.6873 13.7907C13.7282 13.7913 13.7687 13.7837 13.8067 13.7684C13.8446 13.7532 13.8791 13.7306 13.9082 13.7018C13.9373 13.6731 13.9604 13.6389 13.9762 13.6012C13.9919 13.5635 14.0001 13.523 14.0001 13.4822C14.0001 13.4413 13.9919 13.4008 13.9762 13.3631C13.9604 13.3254 13.9373 13.2912 13.9082 13.2625C13.8791 13.2338 13.8446 13.2112 13.8067 13.1959C13.7687 13.1806 13.7282 13.1731 13.6873 13.1736M13.6873 13.7907H0.727324C0.645483 13.7907 0.566996 13.7582 0.509125 13.7004C0.451254 13.6425 0.418739 13.564 0.418732 13.4822V0.522195M13.6873 13.7907L0.418732 0.522195M13.6873 13.1736H1.13592H13.6873Z" fill="black" stroke="black" stroke-width="0.2"/>
<path d="M11.8563 4.29665L11.8562 4.29665C11.7899 4.29648 11.7245 4.31247 11.6657 4.34326C11.6071 4.37393 11.5568 4.41836 11.5192 4.47272C11.5191 4.47292 11.5189 4.47313 11.5188 4.47333L8.26384 9.05426L6.85452 6.89916L6.85451 6.89915C6.82146 6.84864 6.77764 6.80608 6.72619 6.77453C6.67473 6.74297 6.61692 6.72321 6.55693 6.71666C6.49692 6.71011 6.43621 6.71693 6.37916 6.73663C6.32211 6.75634 6.27013 6.78843 6.22696 6.83062L6.22695 6.83063L2.35737 10.6132C2.31816 10.6503 2.28669 10.6948 2.26478 10.7441C2.24273 10.7937 2.2308 10.8473 2.22968 10.9016C2.22855 10.9559 2.23827 11.0098 2.25824 11.0603C2.27822 11.1108 2.30806 11.1568 2.34603 11.1956C2.38399 11.2345 2.42931 11.2653 2.47935 11.2865C2.52938 11.3076 2.58312 11.3185 2.63743 11.3186C2.69174 11.3187 2.74552 11.308 2.79562 11.2871L2.7571 11.1948L2.79562 11.2871C2.84542 11.2663 2.89061 11.2358 2.92858 11.1975L6.44267 7.76234L7.90788 10.0029L7.90789 10.0029C7.94431 10.0586 7.99378 10.1045 8.05199 10.1368C8.11022 10.169 8.17542 10.1865 8.24193 10.1878C8.30845 10.1891 8.37428 10.1741 8.4337 10.1442C8.49312 10.1142 8.54433 10.0702 8.58288 10.016L8.5829 10.016L12.1849 4.94655C12.185 4.94635 12.1852 4.94616 12.1853 4.94596C12.2296 4.88526 12.2563 4.81352 12.2624 4.73863C12.2686 4.6635 12.2538 4.58814 12.2198 4.52088C12.1858 4.45361 12.1338 4.39706 12.0697 4.35749L12.0172 4.44261L12.0697 4.35749C12.0055 4.31793 11.9317 4.29686 11.8563 4.29665Z" fill="black" stroke="black" stroke-width="0.2"/>
</svg>
