<svg width="15" height="14" viewBox="0 0 15 14" fill="none" xmlns="http://www.w3.org/2000/svg">
<path d="M0.43421 0.233132C0.509673 0.155447 0.612892 0.110901 0.721183 0.109275L0.43421 0.233132ZM0.43421 0.233132C0.358922 0.310637 0.317407 0.414798 0.318732 0.522821M0.43421 0.233132L0.318732 0.522821M0.318732 0.522821V13.4821C0.318742 13.5905 0.361792 13.6944 0.438418 13.771C0.515052 13.8477 0.618974 13.8907 0.727315 13.8907H13.6867H13.6873V13.7907M0.318732 0.522821L0.843217 0.231817C0.881481 0.247318 0.916246 0.270338 0.945453 0.299514C0.97466 0.32869 0.997715 0.363431 1.01325 0.401677C1.02879 0.439922 1.0365 0.480888 1.03592 0.522164H1.13592V0.522821V13.0736H13.6867H13.6873V13.1736M0.318732 0.522821V0.522164H0.418732M0.318732 0.522821L0.318742 0.523576L0.418732 0.522164M13.6873 13.7907C13.7282 13.7912 13.7687 13.7837 13.8067 13.7684C13.8446 13.7532 13.8791 13.7305 13.9082 13.7018C13.9373 13.6731 13.9604 13.6389 13.9762 13.6012C13.9919 13.5635 14.0001 13.523 14.0001 13.4821C14.0001 13.4413 13.9919 13.4008 13.9762 13.3631C13.9604 13.3254 13.9373 13.2912 13.9082 13.2625C13.8791 13.2338 13.8446 13.2111 13.8067 13.1959C13.7687 13.1806 13.7282 13.173 13.6873 13.1736M13.6873 13.7907H0.727324C0.645483 13.7907 0.566996 13.7582 0.509125 13.7003C0.451254 13.6425 0.418739 13.564 0.418732 13.4821V0.522164M13.6873 13.7907L0.418732 0.522164M13.6873 13.1736H1.13592H13.6873Z" fill="black" stroke="black" stroke-width="0.2"/>
<path d="M11.8563 4.29673L11.8562 4.29673C11.7899 4.29656 11.7245 4.31255 11.6657 4.34334C11.6071 4.37401 11.5568 4.41843 11.5192 4.4728C11.5191 4.473 11.5189 4.4732 11.5188 4.4734L8.26384 9.05434L6.85452 6.89924L6.85451 6.89922C6.82146 6.84871 6.77764 6.80616 6.72619 6.7746C6.67473 6.74305 6.61692 6.72329 6.55693 6.71674C6.49692 6.71019 6.43621 6.71701 6.37916 6.73671C6.32211 6.75641 6.27013 6.78851 6.22696 6.83069L6.22695 6.83071L2.35737 10.6133C2.31816 10.6504 2.28669 10.6949 2.26478 10.7442C2.24273 10.7938 2.2308 10.8473 2.22968 10.9016C2.22855 10.9559 2.23827 11.0099 2.25824 11.0604C2.27822 11.1109 2.30806 11.1569 2.34603 11.1957C2.38399 11.2345 2.42931 11.2654 2.47935 11.2865C2.52938 11.3076 2.58312 11.3186 2.63743 11.3187C2.69174 11.3188 2.74552 11.308 2.79562 11.2871L2.7571 11.1949L2.79562 11.2871C2.84542 11.2663 2.89061 11.2359 2.92858 11.1976L6.44267 7.76242L7.90788 10.003L7.90789 10.003C7.94431 10.0587 7.99378 10.1046 8.05199 10.1368C8.11022 10.1691 8.17542 10.1866 8.24193 10.1878C8.30845 10.1891 8.37428 10.1742 8.4337 10.1442C8.49312 10.1143 8.54433 10.0703 8.58288 10.0161L8.5829 10.0161L12.1849 4.94662C12.185 4.94643 12.1852 4.94623 12.1853 4.94604C12.2296 4.88533 12.2563 4.8136 12.2624 4.73871C12.2686 4.66358 12.2538 4.58822 12.2198 4.52095C12.1858 4.45369 12.1338 4.39714 12.0697 4.35757L12.0172 4.44268L12.0697 4.35757C12.0055 4.31801 11.9317 4.29693 11.8563 4.29673Z" fill="black" stroke="black" stroke-width="0.2"/>
</svg>
