<svg width="18" height="16" viewBox="0 0 18 16" fill="none" xmlns="http://www.w3.org/2000/svg">
<path d="M0.309278 5.18433L8.55812 9.10339C8.63135 9.1381 8.71095 9.15593 8.79023 9.15593C8.86951 9.15593 8.94911 9.1381 9.02234 9.10339L17.2721 5.18433C17.4609 5.09487 17.5813 4.90447 17.5813 4.69561C17.5813 4.48674 17.4609 4.29634 17.2721 4.20688L9.02266 0.287497C8.87588 0.217451 8.7049 0.217451 8.55812 0.287497L0.309278 4.20688C0.120473 4.29634 0.00012207 4.48674 0.00012207 4.69561C0.00012207 4.90447 0.120473 5.09487 0.309278 5.18433ZM8.79023 1.37544L15.7783 4.69561L8.79023 8.01546L1.80285 4.69561L8.79023 1.37544Z" fill="black"/>
<path d="M17.529 7.76775C17.4004 7.49775 17.0773 7.38282 16.8076 7.51113L8.7902 11.3197L0.773781 7.51113C0.50315 7.38282 0.181258 7.49775 0.0523101 7.76775C-0.0756826 8.03838 0.0392559 8.36059 0.309251 8.48922L8.5581 12.4083C8.63133 12.443 8.71092 12.4605 8.7902 12.4605C8.86948 12.4605 8.94908 12.443 9.02231 12.4083L17.2721 8.4889C17.5421 8.36091 17.657 8.03806 17.529 7.76775Z" fill="black"/>
<path d="M17.529 11.0723C17.4004 10.8017 17.0773 10.688 16.8076 10.8157L8.7902 14.6243L0.773781 10.8157C0.50315 10.688 0.181258 10.8017 0.0523101 11.0723C-0.0756826 11.3426 0.0392559 11.6649 0.309251 11.7938L8.5581 15.7129C8.63133 15.7476 8.71092 15.7651 8.7902 15.7651C8.86948 15.7651 8.94908 15.7476 9.02231 15.7129L17.2721 11.7935C17.5421 11.6655 17.657 11.3423 17.529 11.0723Z" fill="black"/>
</svg>
