<svg width="15" height="16" viewBox="0 0 15 16" fill="none" xmlns="http://www.w3.org/2000/svg">
<path d="M7.41916 1V1.00091H7.41463C7.20653 1.00091 7.01109 1.05933 6.84462 1.16066L0.59785 4.80189H0.598755C0.491085 4.86761 0.418701 4.98628 0.418701 5.12229V5.1232L0.420511 5.12229V13.8791C0.420511 14.4979 0.917236 15 1.5307 15H4.35911C4.97255 15 5.4693 14.498 5.4693 13.8791V10.1056C5.4693 9.89835 5.63578 9.73129 5.84028 9.73129H8.99806C9.20345 9.73129 9.36903 9.89834 9.36903 10.1056V13.8791C9.36903 14.4979 9.86666 15 10.4801 15H13.3076C13.9211 15 14.4187 14.498 14.4187 13.8791V5.12065C14.4187 4.98556 14.3481 4.86781 14.2405 4.80207V4.80299V4.80116V4.80207L7.98188 1.15453C7.8163 1.05595 7.62447 1.00027 7.41909 1.00027L7.41916 1ZM7.41916 1.74668C7.48521 1.74668 7.54854 1.76403 7.60192 1.79506L13.6784 5.33581V13.879C13.6784 14.0862 13.5129 14.2533 13.3075 14.2533H10.48C10.2746 14.2533 10.109 14.0853 10.109 13.879V10.1055C10.109 9.48661 9.61139 8.98455 8.99792 8.98455L5.84014 8.98546V8.98455C5.2267 8.98455 4.72995 9.48659 4.72995 10.1055V13.879C4.72995 14.0853 4.56347 14.2533 4.35897 14.2533H1.53057C1.32608 14.2533 1.15959 14.0862 1.15959 13.879V5.33581L7.22708 1.7995C7.28318 1.76573 7.34832 1.74656 7.4189 1.74656L7.41916 1.74668Z" fill="black"/>
<path d="M0.59785 4.80189L6.84462 1.16066C7.01109 1.05933 7.20653 1.00091 7.41463 1.00091H7.41916V1L7.41909 1.00027C7.62447 1.00027 7.8163 1.05595 7.98188 1.15453L14.2405 4.80207M0.59785 4.80189V4.80098M0.59785 4.80189H0.598755C0.491085 4.86761 0.418701 4.98628 0.418701 5.12229V5.1232L0.420511 5.12229V13.8791C0.420511 14.4979 0.917236 15 1.5307 15H4.35911C4.97255 15 5.4693 14.498 5.4693 13.8791V10.1056C5.4693 9.89835 5.63578 9.73129 5.84028 9.73129H8.99806C9.20345 9.73129 9.36903 9.89834 9.36903 10.1056V13.8791C9.36903 14.4979 9.86666 15 10.4801 15H13.3076C13.921 15 14.4187 14.498 14.4187 13.8791V5.12065C14.4187 4.98556 14.3481 4.86781 14.2405 4.80207M14.2405 4.80207V4.80299V4.80116V4.80207ZM7.41916 1.74668C7.48521 1.74668 7.54854 1.76403 7.60192 1.79506L13.6784 5.33581V13.879C13.6784 14.0862 13.5129 14.2533 13.3075 14.2533H10.48C10.2746 14.2533 10.109 14.0853 10.109 13.879V10.1055C10.109 9.48661 9.61139 8.98455 8.99792 8.98455L5.84014 8.98546V8.98455C5.2267 8.98455 4.72995 9.48659 4.72995 10.1055V13.879C4.72995 14.0853 4.56347 14.2533 4.35897 14.2533H1.53057C1.32608 14.2533 1.15959 14.0862 1.15959 13.879V5.33581L7.22708 1.7995C7.28318 1.76573 7.34832 1.74656 7.4189 1.74656L7.41916 1.74668Z" stroke="black" stroke-width="0.3"/>
</svg>
