<svg width="20" height="18" viewBox="0 0 20 18" fill="none" xmlns="http://www.w3.org/2000/svg">
<path d="M17.7998 3.20261H16.6824V1.64688C16.6824 0.73883 15.9025 0 14.944 0H4.89312C3.93463 0 3.15477 0.73883 3.15477 1.64688V3.20261H2.0374C1.14478 3.20261 0.418701 3.89048 0.418701 4.73613V13.2639C0.418701 14.1095 1.14478 14.7974 2.0374 14.7974H3.15477V16.7839C3.15477 17.4545 3.7306 18 4.43843 18H15.399C16.1068 18 16.6826 17.4545 16.6826 16.7839V14.7974H17.8C18.6926 14.7974 19.4187 14.1095 19.4187 13.2639V4.73636C19.4185 3.89072 18.6924 3.20261 17.7998 3.20261ZM4.34245 1.64688C4.34245 1.35916 4.58942 1.12496 4.89337 1.12496H14.9445C15.2482 1.12496 15.4954 1.35916 15.4954 1.64688V3.20261H4.34245V1.64688ZM15.4949 16.7841C15.4949 16.8325 15.45 16.875 15.399 16.875H4.43843C4.38736 16.875 4.34245 16.8325 4.34245 16.7841V14.7976V11.045C4.34245 10.9967 4.38736 10.9541 4.43843 10.9541H15.399C15.45 10.9541 15.4949 10.9967 15.4949 11.045V14.7976V16.7841ZM18.231 13.2639C18.231 13.4892 18.0376 13.6724 17.7998 13.6724H16.6824V11.045C16.6824 10.3745 16.1066 9.82893 15.3987 9.82893H4.43843C3.7306 9.82893 3.15477 10.3745 3.15477 11.045V13.6724H2.0374C1.79956 13.6724 1.60614 13.4892 1.60614 13.2639V4.73636C1.60614 4.51104 1.79956 4.3278 2.0374 4.3278H3.15477H16.6824H17.7998C18.0376 4.3278 18.231 4.51104 18.231 4.73636V13.2639ZM16.6826 6.04737C16.6826 6.358 16.4169 6.60997 16.0888 6.60997H13.4711C13.1433 6.60997 12.8773 6.35824 12.8773 6.04737C12.8773 5.73651 13.143 5.48478 13.4711 5.48478H16.0888C16.4167 5.48478 16.6826 5.73674 16.6826 6.04737Z" fill="black"/>
</svg>
