<svg width="21" height="21" viewBox="0 0 21 21" fill="none" xmlns="http://www.w3.org/2000/svg">
<path d="M12 7H9V4H7V7H4V9H7V12H9V9H12V7Z" fill="white"/>
<path fill-rule="evenodd" clip-rule="evenodd" d="M8 0C3.58172 0 0 3.58172 0 8C0 12.4183 3.58172 16 8 16C9.84875 16 11.551 15.3729 12.9057 14.3198L19.0002 20.4142L20.4144 19L14.3199 12.9056C15.3729 11.5509 16 9.84867 16 8C16 3.58172 12.4183 0 8 0ZM2 8C2 4.68629 4.68629 2 8 2C11.3137 2 14 4.68629 14 8C14 11.3137 11.3137 14 8 14C4.68629 14 2 11.3137 2 8Z" fill="white"/>
</svg>
