<svg width="21" height="21" viewBox="0 0 21 21" fill="none" xmlns="http://www.w3.org/2000/svg">
<path d="M4 7H12V9H4V7Z" fill="white"/>
<path fill-rule="evenodd" clip-rule="evenodd" d="M0 8C0 3.58172 3.58172 0 8 0C12.4183 0 16 3.58172 16 8C16 9.84867 15.3729 11.5509 14.3199 12.9056L20.4144 19L19.0002 20.4142L12.9057 14.3198C11.551 15.3729 9.84875 16 8 16C3.58172 16 0 12.4183 0 8ZM8 2C4.68629 2 2 4.68629 2 8C2 11.3137 4.68629 14 8 14C11.3137 14 14 11.3137 14 8C14 4.68629 11.3137 2 8 2Z" fill="white"/>
</svg>
